<?xml version="1.0" encoding="utf-8"?>
<!-- Generator: Adobe Illustrator 27.5.0, SVG Export Plug-In . SVG Version: 6.00 Build 0)  -->
<svg version="1.1" id="Layer_1" xmlns="http://www.w3.org/2000/svg" xmlns:xlink="http://www.w3.org/1999/xlink" x="0px" y="0px"
	 viewBox="0 0 1200 900" style="enable-background:new 0 0 1200 900;" xml:space="preserve">

<g>
	<path style="fill:#DBC8C8;" d="M1124.17,664.207c-8.345,19.898-14.536,22.518-19.558,46.268
		c-5.241,24.793-1.746,52.356-18.118,72.749c-5.263,6.559-12.422,13.782-14.755,22.501H122.32c-0.087-0.087-0.173-0.167-0.259-0.248
		c-4.153-3.986-8.103-9.272-11.334-15.152c-0.542-0.979-1.06-1.976-1.561-2.989c-2.207-4.475-3.974-9.215-5.109-13.932
		c-1.693-1.624-3.311-3.271-4.86-4.964c-6.272-6.847-11.362-14.427-15.262-24.004c-2.454-6.024-4.204-12.866-4.405-19.512
		c-0.352-11.242,0.57-22.121,4.072-32.522c-22.386-32.66-13.074-67.963-9.083-104.648c3.358-30.892,16.592-52.621,23.451-81.047
		c7.176-29.746-7.301-150.543,87.296-204.309c-1.699-0.449,1.572-19.944,14.087-42.128c6.968-12.365,16.816-25.57,30.275-36.783
		c24.465-20.375,56.273-25.334,84.481-37.803c34.514-15.256,70.462-24.591,103.634-42.969c31.18-17.266,59.105-38.81,95.013-45.658
		c78.985-15.06,110.666,35.441,183.766,44.869c28.969,3.738,67.139-2.661,95.179,4.843c37.073,9.923,72.737,8.339,105.818,31.059
		c30.213,20.75,42.681,51.763,64.894,79.193c27.166,33.547,74.113,52.102,93.36,92.583c17.572,36.956,2.66,79.631,13.655,117.969
		c9.019,31.462,32.043,58.201,43.879,89.79c1.094,2.914,2.096,5.874,2.978,8.88C1126.11,599.711,1138.839,629.215,1124.17,664.207z"
		/>
	<g>
		<path style="fill:#101319;" d="M703.962,491.238c-0.154,0.278-0.247,0.635-0.295,1.044
			C703.837,491.672,703.949,491.292,703.962,491.238z"/>
		<path style="fill:#101319;" d="M631.63,494.558c-0.183,0.257-0.315,0.593-0.407,0.987
			C631.456,494.971,631.608,494.612,631.63,494.558z"/>
		<g>
			<g>
				<g>
					<g>
						<g>
							<rect x="680.824" y="504.755" style="fill:#242A2B;" width="98.991" height="75.789"/>
							<rect x="680.824" y="504.755" style="fill:#242A2B;" width="80.372" height="75.789"/>
						</g>
						<g>
							<path style="fill:#242A2B;" d="M653.781,578.387v7.752c0,2.919,2.445,5.285,5.463,5.285h142.781
								c3.017,0,5.463-2.367,5.463-5.285v-7.752c0-2.92-2.445-5.286-5.463-5.286H659.244
								C656.227,573.101,653.781,575.467,653.781,578.387z"/>
							<path style="fill:#767577;" d="M653.781,578.387v7.752c0,2.919,2.288,5.285,5.109,5.285h105.608
								c2.821,0,5.109-2.367,5.109-5.285v-7.752c0-2.92-2.288-5.286-5.109-5.286H658.891
								C656.069,573.101,653.781,575.467,653.781,578.387z"/>
						</g>
					</g>
					<g>
						<path style="fill:#242A2B;" d="M497.473,507.111c0,5.921,5.094,10.723,11.376,10.723h470.812
							c6.282,0,11.374-4.802,11.374-10.723V200.477c0-5.923-5.093-10.724-11.374-10.724H508.849
							c-6.282,0-11.376,4.801-11.376,10.724V507.111z"/>
						<path style="fill:#BEBEBF;" d="M490.715,507.111c0,5.921,5.016,10.723,11.204,10.723h463.778
							c6.188,0,11.205-4.802,11.205-10.723V200.477c0-5.923-5.017-10.724-11.205-10.724H501.918
							c-6.188,0-11.204,4.801-11.204,10.724V507.111z"/>
						<path style="fill:#242A2B;" d="M507.053,209.519V470.44c0,4.341,3.748,7.86,8.37,7.86h438.381c4.621,0,8.369-3.52,8.369-7.86
							V209.519c0-4.341-3.748-7.862-8.369-7.862H515.423C510.801,201.657,507.053,205.178,507.053,209.519z"/>
						<path style="fill:#495A5E;" d="M507.053,209.82v13.937h455.12V209.82c0-4.507-3.748-8.163-8.369-8.163H515.423
							C510.801,201.657,507.053,205.313,507.053,209.82z"/>
						<path style="fill:#495A5E;" d="M507.053,467.185v13.994c0,4.508,3.748,8.161,8.37,8.161h438.381
							c4.621,0,8.369-3.653,8.369-8.161v-13.994H507.053z"/>
						<g>
							<g>
								<path style="fill:#0794E4;" d="M748.15,478.337c0,3.315,2.687,6.003,6.002,6.003c3.316,0,6.002-2.688,6.002-6.003
									c0-3.316-2.687-6.004-6.002-6.004C750.836,472.333,748.15,475.021,748.15,478.337z"/>
								<g>
									<rect x="751.947" y="476.454" style="fill:#FFFFFF;" width="6.028" height="3.767"/>
									<polygon style="fill:#FFFFFF;" points="752.057,477.984 750.33,476.728 750.33,479.946 752.135,479.004 									"/>
								</g>
							</g>
							<g>
								<path style="fill:#0794E4;" d="M724.645,478.337c0,3.315,2.688,6.003,6.004,6.003c3.315,0,6.002-2.688,6.002-6.003
									c0-3.316-2.688-6.004-6.002-6.004C727.333,472.333,724.645,475.021,724.645,478.337z"/>
								<g>
									<rect x="733.198" y="477.665" style="fill:#FFFFFF;" width="1.379" height="4.134"/>
									<rect x="731.131" y="476.459" style="fill:#FFFFFF;" width="1.378" height="5.34"/>
									<rect x="729.064" y="475.253" style="fill:#FFFFFF;" width="1.379" height="6.546"/>
									<rect x="727.111" y="474.276" style="fill:#FFFFFF;" width="1.379" height="7.523"/>
								</g>
							</g>
							<g>
								<path style="fill:#0794E4;" d="M701.221,478.337c0,3.315,2.687,6.003,6.004,6.003c3.315,0,6.004-2.688,6.004-6.003
									c0-3.316-2.689-6.004-6.004-6.004C703.907,472.333,701.221,475.021,701.221,478.337z"/>
								<g>
									<path style="fill:#FFFFFF;" d="M703.977,478.072c0,1.3,1.459,2.354,3.256,2.354c1.799,0,3.257-1.054,3.257-2.354
										c0-1.301-1.458-2.354-3.257-2.354C705.437,475.718,703.977,476.771,703.977,478.072z"/>
									<path style="fill:#FFFFFF;" d="M708.608,479.014c0.221,0.967,1.598,2.216,2.322,2.911c-1.695-0.478-2.891-1.55-3.657-2.597
										L708.608,479.014z"/>
								</g>
							</g>
							<g>
								<path style="fill:#EF1616;" d="M676.658,478.752c0.229,3.308,3.096,5.803,6.405,5.574c3.307-0.23,5.802-3.098,5.573-6.405
									c-0.229-3.307-3.097-5.803-6.406-5.573C678.923,472.578,676.427,475.446,676.658,478.752z"/>
								<g>
									<path style="fill:#FFFFFF;" d="M679.42,480.382c-0.257,0.231-0.278,0.628-0.048,0.887l0,0
										c0.232,0.258,0.628,0.28,0.886,0.049l5.614-5.025c0.258-0.231,0.278-0.628,0.049-0.887l0,0
										c-0.233-0.258-0.629-0.28-0.888-0.049L679.42,480.382z"/>
									<path style="fill:#FFFFFF;" d="M684.69,481.562c0.232,0.258,0.629,0.28,0.887,0.049l0,0
										c0.258-0.231,0.281-0.628,0.049-0.886l-5.024-5.613c-0.232-0.258-0.628-0.28-0.887-0.049l0,0
										c-0.258,0.232-0.279,0.628-0.049,0.886L684.69,481.562z"/>
								</g>
							</g>
						</g>
					</g>
				</g>
				<g>
					<g>
						<g>
							<path style="fill:#FF2727;" d="M893.99,583.373c0,4.486-1.851,8.123-4.135,8.123h-90.129c-2.284,0-4.135-3.637-4.135-8.123
								v-8.938c0-4.486,1.851-8.123,4.135-8.123h90.129c2.284,0,4.135,3.636,4.135,8.123V583.373z"/>
							<path style="fill:#FF7676;" d="M810.474,591.495h-6.062c-2.283,0-4.135-3.635-4.135-8.122v-8.938
								c0-4.486,1.852-8.124,4.135-8.124h6.062c-2.282,0-4.134,3.638-4.134,8.124v8.938
								C806.34,587.861,808.192,591.495,810.474,591.495z"/>
							<path style="fill:#FF7676;" d="M871.105,591.495h-6.062c-2.283,0-4.135-3.635-4.135-8.122v-8.938
								c0-4.486,1.852-8.124,4.135-8.124h6.062c-2.283,0-4.135,3.638-4.135,8.124v8.938
								C866.97,587.861,868.822,591.495,871.105,591.495z"/>
							<path style="fill:#B51A1A;" d="M956.446,590.481c0.509,0.647,1.093,1.014,1.716,1.014h-75.513
								c-1.956,0-3.543-3.635-3.543-8.122v-8.938c0-4.486,1.587-8.124,3.543-8.124h75.513c-0.814,0-1.565,0.631-2.162,1.69
								c-0.356,0.63-0.657,1.412-0.887,2.302c-0.091,0.345-0.17,0.706-0.235,1.084c-0.081,0.462-0.145,0.945-0.19,1.446
								c-0.03,0.353-0.05,0.715-0.06,1.083c-0.005,0.172-0.008,0.346-0.008,0.52v8.938c0,0.726,0.042,1.431,0.121,2.101
								c0.042,0.373,0.097,0.734,0.161,1.084c0.072,0.377,0.153,0.74,0.245,1.083c0.104,0.385,0.221,0.747,0.35,1.084
								C955.766,589.43,956.087,590.025,956.446,590.481z"/>
							<path style="fill:#FFFFFF;" d="M956.446,590.481h-71.931c-2.013,0-3.644-3.245-3.644-7.25v-7.977
								c0-4.005,1.631-7.252,3.644-7.252H956c-0.356,0.63-0.657,1.412-0.887,2.302c-0.091,0.345-0.17,0.706-0.235,1.084
								c-0.081,0.462-0.145,0.945-0.19,1.446c-0.03,0.353-0.05,0.715-0.06,1.083c-0.005,0.172-0.008,0.346-0.008,0.52v8.938
								c0,0.726,0.042,1.431,0.121,2.101c0.042,0.373,0.097,0.734,0.161,1.084c0.072,0.377,0.153,0.74,0.245,1.083
								c0.104,0.385,0.221,0.747,0.35,1.084C955.766,589.43,956.087,590.025,956.446,590.481z"/>
							<g>
								<path style="fill:#B2AC96;" d="M955.113,570.303c-0.091,0.345-0.17,0.706-0.235,1.084h-69.004v-1.084H955.113z"/>
								<path style="fill:#B2AC96;" d="M955.496,588.725h-70.173v-1.084h69.823C955.25,588.026,955.367,588.389,955.496,588.725z"/>
								<path style="fill:#B2AC96;" d="M954.688,572.832c-0.03,0.353-0.05,0.715-0.06,1.083h-71.234v-1.083H954.688z"/>
								<rect x="883.669" y="575.722" style="fill:#B2AC96;" width="70.951" height="1.083"/>
								<rect x="883.669" y="578.972" style="fill:#B2AC96;" width="70.951" height="1.085"/>
								<rect x="883.669" y="582.224" style="fill:#B2AC96;" width="70.951" height="1.083"/>
								<path style="fill:#B2AC96;" d="M954.901,586.558h-71.233v-1.084h71.072C954.782,585.847,954.837,586.208,954.901,586.558z"
									/>
							</g>
						</g>
						<g>
							<g>
								<g>
									<path style="fill:#FCB330;" d="M794.239,531.938c-1.279,5.944-6.684,12.343-15.737,11.935h-13.215
										c-4.673-3.369-5.317-10.862,0.607-14.158c0.155-0.088,0.316-0.166,0.478-0.228c2.891-1.264,6.845-0.129,9.835-1.119
										c2.995-0.99,5.145-4.281,7.893-5.307C792.38,519.957,795.577,525.699,794.239,531.938z"/>
									<path style="fill:#DB9526;" d="M794.239,531.938c-1.279,5.944-6.684,12.343-15.737,11.935h-13.215
										c-4.673-3.369-5.317-10.862,0.607-14.158c0.155-0.088,0.316-0.166,0.478-0.228
										C768.94,537.058,783.885,537.406,794.239,531.938z"/>
								</g>
								<g>
									<path style="fill:#FCB330;" d="M791.054,547.849c-3.426-5.023-4.339-13.35,2.196-19.629l9.106-9.576
										c5.661-1.067,11.534,3.631,9.841,10.195c-0.043,0.173-0.097,0.343-0.162,0.503c-1.077,2.967-4.625,5.05-5.968,7.899
										c-1.346,2.853-0.443,6.678-1.592,9.376C801.018,554.756,794.654,553.117,791.054,547.849z"/>
									<path style="fill:#DB9526;" d="M791.054,547.849c-3.426-5.023-4.339-13.35,2.196-19.629l9.106-9.576
										c5.661-1.067,11.534,3.631,9.841,10.195c-0.043,0.173-0.097,0.343-0.162,0.503
										C804.776,525.987,794.226,536.578,791.054,547.849z"/>
								</g>
								<g>
									<path style="fill:#FCB330;" d="M800.338,544.297c0.387-6.068,4.786-13.196,13.801-14.131l13.068-1.954
										c5.122,2.641,6.866,9.956,1.495,14.092c-0.141,0.11-0.288,0.211-0.438,0.296c-2.672,1.678-6.751,1.141-9.562,2.562
										c-2.816,1.422-4.456,4.994-7.021,6.416C803.95,555.871,799.938,550.666,800.338,544.297z"/>
									<path style="fill:#DB9526;" d="M800.338,544.297c0.387-6.068,4.786-13.196,13.801-14.131l13.068-1.954
										c5.122,2.641,6.866,9.956,1.495,14.092c-0.141,0.11-0.288,0.211-0.438,0.296
										C824.602,535.492,809.769,537.359,800.338,544.297z"/>
								</g>
								<g>
									<path style="fill:#FCB330;" d="M842.388,528.045c4.38,4.217,6.976,12.181,1.862,19.664l-6.955,11.235
										c-5.324,2.201-12.034-1.198-11.718-7.968c0.007-0.179,0.025-0.356,0.057-0.526c0.448-3.125,3.494-5.888,4.226-8.951
										c0.736-3.068-0.93-6.628-0.357-9.504C831.222,523.32,837.786,523.624,842.388,528.045z"/>
									<path style="fill:#DB9526;" d="M842.388,528.045c4.38,4.217,6.976,12.181,1.862,19.664l-6.955,11.235
										c-5.324,2.201-12.034-1.198-11.718-7.968c0.007-0.179,0.025-0.356,0.057-0.526
										C833.423,552.251,841.586,539.726,842.388,528.045z"/>
								</g>
							</g>
							<path style="fill:#FFFFFF;" d="M857.254,537.602c-0.078,6.964-1.68,13.587-4.499,19.573
								c-5.787,12.292-16.732,21.915-30.216,26.392v7.929h-34.202v-7.929c-11.095-3.685-20.469-10.851-26.667-20.122
								c-5.005-7.483-7.939-16.344-8.048-25.843H857.254z"/>
							<path style="fill:#F4F2EF;" d="M804.111,566.436c16.226-0.498,33.218-3.187,48.644-9.261
								c-5.787,12.292-16.732,21.915-30.216,26.392v7.929h-34.202v-7.929c-11.095-3.685-20.469-10.851-26.667-20.122
								C775.195,567.291,790.591,566.85,804.111,566.436z"/>
						</g>
					</g>
					<g>
						<path style="fill:#1A1D1E;" d="M816.462,587.473c0,2.222-1.802,4.023-4.024,4.023H599.475c-2.222,0-4.023-1.801-4.023-4.023
							l0,0c0-2.222,1.801-4.023,4.023-4.023h212.963C814.66,583.45,816.462,585.251,816.462,587.473L816.462,587.473z"/>
						<path style="fill:#2D3335;" d="M768.183,587.473c0,2.222-1.802,4.023-4.024,4.023H551.197c-2.222,0-4.024-1.801-4.024-4.023
							l0,0c0-2.222,1.802-4.023,4.024-4.023h212.963C766.382,583.45,768.183,585.251,768.183,587.473L768.183,587.473z"/>
					</g>
				</g>
				<g>
					<path style="fill:#71CFF4;" d="M948.524,449.924c0,3.012-2.442,5.454-5.454,5.454h-46.545c-3.014,0-5.456-2.442-5.456-5.454
						V240.468c0-3.012,2.442-5.454,5.456-5.454h46.545c3.013,0,5.454,2.442,5.454,5.454V449.924z"/>
					<g>
						<g>
							<path style="fill:#FFFFFF;" d="M935.676,244.831c0,1.406-1.14,2.545-2.546,2.545h-34.182c-1.407,0-2.546-1.139-2.546-2.545
								l0,0c0-1.406,1.139-2.545,2.546-2.545h34.182C934.536,242.286,935.676,243.426,935.676,244.831L935.676,244.831z"/>
							<path style="fill:#FFFFFF;" d="M935.676,253.56c0,1.405-1.14,2.545-2.546,2.545h-34.182c-1.407,0-2.546-1.14-2.546-2.545l0,0
								c0-1.406,1.139-2.546,2.546-2.546h34.182C934.536,251.014,935.676,252.154,935.676,253.56L935.676,253.56z"/>
							<path style="fill:#FFFFFF;" d="M935.676,280.832c0,1.407-1.14,2.545-2.546,2.545h-34.182c-1.407,0-2.546-1.139-2.546-2.545
								l0,0c0-1.406,1.139-2.545,2.546-2.545h34.182C934.536,278.286,935.676,279.426,935.676,280.832L935.676,280.832z"/>
							<path style="fill:#FFFFFF;" d="M935.676,289.56c0,1.406-1.14,2.546-2.546,2.546h-34.182c-1.407,0-2.546-1.14-2.546-2.546l0,0
								c0-1.405,1.139-2.545,2.546-2.545h34.182C934.536,287.015,935.676,288.155,935.676,289.56L935.676,289.56z"/>
							<path style="fill:#FFFFFF;" d="M935.676,297.923c0,1.406-1.14,2.545-2.546,2.545h-34.182c-1.407,0-2.546-1.139-2.546-2.545
								l0,0c0-1.406,1.139-2.546,2.546-2.546h34.182C934.536,295.378,935.676,296.517,935.676,297.923L935.676,297.923z"/>
							<path style="fill:#FFFFFF;" d="M935.676,353.56c0,1.405-1.14,2.545-2.546,2.545h-34.182c-1.407,0-2.546-1.14-2.546-2.545l0,0
								c0-1.406,1.139-2.545,2.546-2.545h34.182C934.536,351.015,935.676,352.155,935.676,353.56L935.676,353.56z"/>
							<path style="fill:#FFFFFF;" d="M935.676,362.651c0,1.406-1.14,2.546-2.546,2.546h-34.182c-1.407,0-2.546-1.14-2.546-2.546
								l0,0c0-1.406,1.139-2.545,2.546-2.545h34.182C934.536,360.106,935.676,361.245,935.676,362.651L935.676,362.651z"/>
							<path style="fill:#FFFFFF;" d="M935.676,371.742c0,1.406-1.14,2.546-2.546,2.546h-34.182c-1.407,0-2.546-1.14-2.546-2.546
								l0,0c0-1.406,1.139-2.545,2.546-2.545h34.182C934.536,369.197,935.676,370.336,935.676,371.742L935.676,371.742z"/>
							<path style="fill:#FFFFFF;" d="M935.676,316.832c0,1.406-1.14,2.546-2.546,2.546h-34.182c-1.407,0-2.546-1.14-2.546-2.546
								l0,0c0-1.406,1.139-2.545,2.546-2.545h34.182C934.536,314.286,935.676,315.426,935.676,316.832L935.676,316.832z"/>
							<path style="fill:#FFFFFF;" d="M925.315,408.677c0,1.657-1.343,3.001-3.001,3.001h-22.911c-1.657,0-3.001-1.344-3.001-3.001
								l0,0c0-1.657,1.343-3,3.001-3h22.911C923.972,405.677,925.315,407.02,925.315,408.677L925.315,408.677z"/>
							<path style="fill:#FFFFFF;" d="M918.222,418.106c0,1.507-1.221,2.727-2.727,2.727H899.13c-1.506,0-2.727-1.221-2.727-2.727
								l0,0c0-1.506,1.221-2.727,2.727-2.727h16.364C917,415.379,918.222,416.6,918.222,418.106L918.222,418.106z"/>
						</g>
						<g>
							<g>
								<path style="fill:#35B5D3;" d="M943.979,263.586c0,1.657-1.343,3-3.001,3h-22.911c-1.657,0-3.001-1.343-3.001-3l0,0
									c0-1.657,1.343-3.001,3.001-3.001h22.911C942.636,260.585,943.979,261.928,943.979,263.586L943.979,263.586z"/>
							</g>
							<g>
								<path style="fill:#35B5D3;" d="M943.979,307.222c0,1.658-1.343,3.001-3.001,3.001h-22.911c-1.657,0-3.001-1.343-3.001-3.001
									l0,0c0-1.658,1.343-3,3.001-3h22.911C942.636,304.222,943.979,305.565,943.979,307.222L943.979,307.222z"/>
							</g>
							<g>
								<path style="fill:#35B5D3;" d="M943.979,344.314c0,1.656-1.343,3-3.001,3h-22.911c-1.657,0-3.001-1.344-3.001-3l0,0
									c0-1.657,1.343-3,3.001-3h22.911C942.636,341.313,943.979,342.656,943.979,344.314L943.979,344.314z"/>
							</g>
							<g>
								<path style="fill:#35B5D3;" d="M943.979,326.495c0,1.658-1.343,3.001-3.001,3.001h-22.911c-1.657,0-3.001-1.343-3.001-3.001
									l0,0c0-1.656,1.343-3,3.001-3h22.911C942.636,323.495,943.979,324.838,943.979,326.495L943.979,326.495z"/>
							</g>
							<g>
								<path style="fill:#35B5D3;" d="M943.979,272.65c0,1.506-1.221,2.727-2.728,2.727h-16.363c-1.506,0-2.727-1.221-2.727-2.727
									l0,0c0-1.506,1.221-2.727,2.727-2.727h16.363C942.758,269.923,943.979,271.144,943.979,272.65L943.979,272.65z"/>
							</g>
							<g>
								<path style="fill:#35B5D3;" d="M943.979,335.196c0,1.506-1.221,2.727-2.728,2.727h-16.363c-1.506,0-2.727-1.222-2.727-2.727
									l0,0c0-1.506,1.221-2.728,2.727-2.728h16.363C942.758,332.469,943.979,333.69,943.979,335.196L943.979,335.196z"/>
							</g>
							<g>
								<path style="fill:#35B5D3;" d="M943.979,398.496c0,1.657-1.343,3-3.001,3h-22.911c-1.657,0-3.001-1.344-3.001-3l0,0
									c0-1.657,1.343-3.001,3.001-3.001h22.911C942.636,395.495,943.979,396.839,943.979,398.496L943.979,398.496z"/>
							</g>
							<g>
								<path style="fill:#35B5D3;" d="M943.979,427.223c0,1.657-1.343,3-3.001,3h-22.911c-1.657,0-3.001-1.343-3.001-3l0,0
									c0-1.657,1.343-3.001,3.001-3.001h22.911C942.636,424.223,943.979,425.566,943.979,427.223L943.979,427.223z"/>
							</g>
							<g>
								<path style="fill:#35B5D3;" d="M943.979,380.678c0,1.657-1.343,3-3.001,3h-22.911c-1.657,0-3.001-1.343-3.001-3l0,0
									c0-1.658,1.343-3.001,3.001-3.001h22.911C942.636,377.677,943.979,379.02,943.979,380.678L943.979,380.678z"/>
							</g>
							<g>
								<path style="fill:#35B5D3;" d="M943.979,389.378c0,1.507-1.221,2.728-2.728,2.728h-16.363c-1.506,0-2.727-1.221-2.727-2.728
									l0,0c0-1.505,1.221-2.726,2.727-2.726h16.363C942.758,386.652,943.979,387.872,943.979,389.378L943.979,389.378z"/>
							</g>
							<g>
								<path style="fill:#35B5D3;" d="M943.979,436.289c0,1.506-1.221,2.727-2.728,2.727h-16.363c-1.506,0-2.727-1.221-2.727-2.727
									l0,0c0-1.507,1.221-2.728,2.727-2.728h16.363C942.758,433.561,943.979,434.782,943.979,436.289L943.979,436.289z"/>
							</g>
							<g>
								<path style="fill:#35B5D3;" d="M943.979,444.651c0,1.507-1.221,2.728-2.728,2.728h-16.363c-1.506,0-2.727-1.221-2.727-2.728
									l0,0c0-1.506,1.221-2.728,2.727-2.728h16.363C942.758,441.924,943.979,443.146,943.979,444.651L943.979,444.651z"/>
							</g>
						</g>
					</g>
				</g>
				<g>
					<rect x="643.705" y="247.471" style="fill:#E6FAFF;" width="193.784" height="197.001"/>
					<g>
						<path style="fill:#1FB474;" d="M817.622,259.253c0,3.037,2.462,5.498,5.497,5.498c3.038,0,5.499-2.461,5.499-5.498
							c0-3.036-2.461-5.498-5.499-5.498C820.084,253.755,817.622,256.217,817.622,259.253z"/>
						<path style="fill:#EF1616;" d="M801.86,259.253c0,3.037,2.462,5.498,5.497,5.498c3.036,0,5.499-2.461,5.499-5.498
							c0-3.036-2.462-5.498-5.499-5.498C804.322,253.755,801.86,256.217,801.86,259.253z"/>
					</g>
					<g>
						<path style="fill:#3A1F30;" d="M676.941,444.877l138.109-0.428c2.878-21.159,8.749-65.085,9.182-74.36
							c0.697-14.993-2.429-23.36-17.131-29.27c-30.166-12.126-71.085-17.931-102.502-9.967
							c-10.123,2.568-23.551,4.102-26.506,14.766c-3.15,11.365-4.041,24.381-4.124,36.506
							C673.826,403.512,676.038,424.248,676.941,444.877z"/>
						<g>
							<g>
								<path style="fill:#0079B5;" d="M794.173,444.473c0.14-4.179,0.283-8.367,0.421-12.354
									c0.325-9.451,0.629-17.746,0.845-21.929c1.78-34.918-7.34-50.054-15.955-58.48c-1.042-1.026-2.079-1.948-3.088-2.794
									c-4.417-3.711-8.3-5.985-9.945-8.767c-1.557-2.626-7.871-4.53-16.504-5.333c-0.06-0.005-0.124-0.011-0.184-0.016h-0.005
									c-0.857-0.082-1.731-0.147-2.632-0.201c-0.673-0.044-1.356-0.082-2.057-0.109c-0.259-0.016-0.519-0.028-0.786-0.038h-0.006
									c-8.295-0.293-17.98,0.304-27.403,2.034c-0.418,0.076-0.836,0.152-1.258,0.239c-0.011,0-0.023,0.005-0.032,0.005
									c-0.055,0.011-0.115,0.022-0.169,0.032c-0.048,0.011-0.086,0.016-0.129,0.027c-0.13,0.027-0.265,0.054-0.396,0.081
									c-3.809,0.765-7.546,1.72-11.122,2.887h-0.005c-0.011,0-0.021,0-0.033,0.011c-2.571,0.835-5.05,1.779-7.405,2.831
									c-0.856,0.386-1.698,0.787-2.523,1.199h-0.005c-4.173,2.105-7.844,4.606-10.775,7.536
									c-12.687,12.688-18.293,69.298-4.721,93.138H794.173z"/>
								<path style="fill:#1E1416;" d="M752.293,302.023c-0.538-5.748-12.159-16.552-12.381-21.989l11.306-15.014
									c7.232,3.537,11.736,8.879,13.302,11.141c2.084,3.013,3.465,7.076,4.426,10.494c2.744,9.763,3.104,20.205,4.072,30.345
									c1.244,13.073,1.937,26.485,5.186,39.395c2.923,11.611,8.876,24.776,9.312,36.572c-9.171,2.547-32.076,2.548-37.452-6.114
									C742.119,374.052,753.974,319.943,752.293,302.023z"/>
								<path style="fill:#1E1416;" d="M713.344,300.079c0.54-5.747,20.475-16.47,20.696-21.909l-11.308-15.014
									c-7.232,3.538-11.735,8.879-13.3,11.141c-2.084,3.013-3.465,7.076-4.426,10.495c-2.744,9.762-3.104,20.203-4.07,30.344
									c-1.247,13.074-1.937,26.486-5.187,39.396c-2.922,11.612-8.878,24.775-9.312,36.572c9.171,2.546,21.905-0.094,27.281-8.757
									C721.664,369.548,711.662,318,713.344,300.079z"/>
								<g>
									<path style="fill:#FFB278;" d="M752.325,316.317c-1.133,2.769-0.793,6.671-1.112,9.709
										c-0.322,2.986-0.658,6.028-1.082,9.043c-0.207,1.507-0.442,3.003-0.699,4.483c-1.179,6.727-3.595,17.106-8.943,21.494
										c-4.382,3.6-9.524,1.328-13.259-2.34c-3.741-3.673-5.561-9.737-6.878-15.475c-0.207-0.905-0.401-1.792-0.586-2.668
										c-0.319-1.508-0.62-2.96-0.932-4.299c-1.306-5.672-1.173-11.83-2.88-17.301L752.325,316.317z"/>
									<path style="fill:#E5804E;" d="M752.325,316.317c-1.25,2.769-8.965,51.208-31.972,26.914
										c-0.207-0.905-0.401-1.792-0.586-2.668c-0.319-1.508-0.62-2.96-0.932-4.299c-1.306-5.672-1.173-11.83-2.88-17.301
										L752.325,316.317z"/>
								</g>
								<path style="fill:#006F9B;" d="M769.389,444.473c-0.057-19.135-0.984-43.32-2.829-50.532
									c-0.011,0.721-0.027,1.438-0.049,2.154c-0.211,9.533-0.726,18.782-1.139,28.374c-0.26,5.993-0.199,13.057-0.528,20.004
									H769.389z"/>
								<g>
									<g>
										<path style="fill:#FFB278;" d="M716.339,275.55c17.421-15.897,30.646-1.146,33.918,19.46c0,0,4.392,19.912,0.574,29.114
											c-2.892,6.97-11.471,20.565-23.341,19.934c-5.642-0.3-16.567-10.331-19.421-18.401c-1.761-4.974-4.414-11.73-3.933-18.25
											C704.964,296.121,707.569,283.553,716.339,275.55z"/>
										<g>
											<path style="fill:#1E1416;" d="M720.403,297.949c-0.365-2.302-4.376-3.111-7.807-3.025
												c-3.231,0.081-5.42,1.871-5.891,3.834c1.577-1.602,4.521-1.8,6.513-1.425
												C715.29,297.724,720.799,299.799,720.403,297.949z"/>
											<path style="fill:#1E1416;" d="M734.768,298.454c-0.707-2.047,3.453-3.33,7.388-3.755
												c3.707-0.401,7.061,0.832,8.552,2.464c-2.568-1.159-6.004-0.902-8.085-0.287
												C740.46,297.516,735.217,300.116,734.768,298.454z"/>
											<path style="fill:#E5804E;" d="M729.688,320.428c0,0-0.116,0.015-0.309,0.064c-0.097,0.029-0.214,0.042-0.34,0.076
												c-0.124,0.032-0.272,0.057-0.427,0.093c-0.153,0.042-0.325,0.067-0.498,0.11c-0.173,0.036-0.356,0.071-0.544,0.108
												c-0.188,0.03-0.38,0.072-0.573,0.094c-0.192,0.034-0.386,0.047-0.579,0.067c-0.094,0.01-0.191,0.009-0.285,0.014
												c-0.094,0.006-0.189,0.008-0.278,0.001c-0.092-0.008-0.186,0.001-0.273-0.01c-0.086-0.013-0.172-0.025-0.26-0.032
												c-0.088-0.004-0.162-0.041-0.247-0.052c-0.081-0.015-0.16-0.033-0.233-0.066c-0.076-0.026-0.149-0.053-0.221-0.079
												c-0.069-0.03-0.132-0.072-0.197-0.104c-0.137-0.061-0.246-0.148-0.35-0.226c-0.055-0.04-0.104-0.078-0.149-0.112
												c-0.043-0.041-0.081-0.079-0.116-0.113c-0.143-0.139-0.241-0.224-0.241-0.224s0.012,0.125,0.06,0.352
												c0.012,0.056,0.026,0.121,0.042,0.189c0.02,0.066,0.056,0.129,0.088,0.204c0.035,0.075,0.07,0.154,0.111,0.236
												c0.036,0.087,0.103,0.152,0.16,0.235c0.061,0.078,0.124,0.166,0.199,0.243c0.078,0.071,0.162,0.14,0.25,0.214
												c0.087,0.079,0.185,0.131,0.288,0.187c0.102,0.055,0.206,0.118,0.318,0.156c0.222,0.078,0.455,0.153,0.694,0.173
												c0.24,0.047,0.476,0.024,0.716,0.022c0.235-0.03,0.472-0.053,0.691-0.121c0.227-0.05,0.437-0.135,0.64-0.215
												c0.201-0.087,0.39-0.185,0.565-0.287c0.169-0.108,0.332-0.207,0.471-0.322c0.14-0.11,0.264-0.218,0.369-0.326
												c0.107-0.102,0.197-0.196,0.261-0.28C729.618,320.534,729.688,320.428,729.688,320.428z"/>
											<g>
												<path style="fill:#E5804E;" d="M709.683,302.703c0.887-1.083,2.178-2.441,4.214-2.943
													c1.737-0.464,3.516,0.367,4.627,1.729c0.395,0.479,0.781,1.226,1.049,1.824c0.474,1.031,0.548,3.298,0.574,3.592
													c-0.639,0.488-1.23-0.915-1.912-0.518c-1.318,0.793-2.856,1.216-3.885,1.172c-1.29-0.049-2.24-0.364-3.31-0.879
													c-0.848-0.385-1.89,0.93-3.372,0.609C707.771,305.406,708.803,303.827,709.683,302.703z"/>
												<g>
													<path style="fill:#FFFFFF;" d="M707.669,307.29c1.137,0.242,1.961,0.635,2.666,0.975
														c0.216,0.107,0.416,0.205,0.615,0.291c1.066,0.517,2.019,0.835,3.307,0.884c0.706,0.027,1.648-0.157,2.602-0.538
														c0.435-0.173,0.872-0.383,1.287-0.636c0.678-0.393,1.362-0.873,1.999-1.357c-0.006-0.016-0.189-0.684-0.663-1.713
														c-0.269-0.603-0.658-1.347-1.051-1.827c-0.463-0.565-1.039-1.039-1.68-1.368c-0.9-0.464-1.93-0.631-2.947-0.361
														c-2.036,0.501-3.33,1.859-4.214,2.941c-0.02,0.022-0.037,0.049-0.052,0.07
														C708.688,305.744,708.171,306.633,707.669,307.29z"/>
													<path style="fill:#1E1416;" d="M709.539,304.65c0.183,1.089,0.523,2.538,0.796,3.615
														c0.216,0.107,0.416,0.205,0.615,0.291c1.066,0.517,2.019,0.835,3.307,0.884c0.706,0.027,1.648-0.157,2.602-0.538
														c0.172-1.724,0.269-6.109-0.034-6.745c-0.027-0.053-0.048-0.107-0.074-0.155c-0.9-0.464-1.93-0.631-2.947-0.361
														c-2.036,0.501-3.33,1.859-4.214,2.941C709.572,304.602,709.555,304.629,709.539,304.65z"/>
												</g>
												<path style="fill:#FFFFFF;" d="M711.393,305.747c0.038,0.781,0.299,1.396,0.584,1.375
													c0.284-0.023,0.486-0.674,0.449-1.455c-0.037-0.783-0.296-1.398-0.582-1.376
													C711.558,304.313,711.357,304.964,711.393,305.747z"/>
											</g>
											<g>
												<path style="fill:#E5804E;" d="M737.832,303.081c0.888-1.083,2.179-2.443,4.214-2.944
													c1.739-0.463,3.519,0.367,4.627,1.731c0.395,0.478,0.783,1.225,1.051,1.824c0.474,1.031,0.548,3.296,0.574,3.591
													c-0.64,0.49-1.231-0.914-1.912-0.519c-1.318,0.794-2.856,1.216-3.887,1.173c-1.288-0.049-2.24-0.363-3.309-0.88
													c-0.847-0.385-1.891,0.93-3.373,0.609C735.923,305.782,736.952,304.204,737.832,303.081z"/>
												<g>
													<path style="fill:#FFFFFF;" d="M735.818,307.668c0.532,0.118,1.002,0.264,1.416,0.42
														c0.738,0.28,1.324,0.603,1.864,0.845c1.072,0.518,2.02,0.835,3.313,0.883c0.775,0.033,1.847-0.205,2.887-0.662
														c0.339-0.146,0.672-0.318,0.997-0.512c0.678-0.393,1.361-0.867,2.004-1.358c-0.006-0.016-0.195-0.684-0.669-1.713
														c-0.27-0.602-0.652-1.352-1.051-1.826c-0.365-0.458-0.813-0.851-1.309-1.153c-0.98-0.619-2.16-0.884-3.318-0.577
														c-2.031,0.502-3.324,1.859-4.213,2.942c-0.442,0.565-0.798,1.082-1.104,1.535
														C736.335,306.94,736.076,307.334,735.818,307.668z"/>
													<path style="fill:#1E1416;" d="M736.636,306.493c0.178,0.549,0.405,1.131,0.598,1.595
														c0.738,0.28,1.324,0.603,1.864,0.845c1.072,0.518,2.02,0.835,3.313,0.883c0.775,0.033,1.847-0.205,2.887-0.662
														c1.12-3.184,0.581-4.935-0.028-6.561c-0.98-0.619-2.16-0.884-3.318-0.577c-2.031,0.502-3.324,1.859-4.213,2.942
														C737.298,305.524,736.943,306.041,736.636,306.493z"/>
												</g>
												<path style="fill:#FFFFFF;" d="M739.573,306.145c0.037,0.781,0.297,1.397,0.583,1.376
													c0.284-0.022,0.486-0.674,0.449-1.455c-0.036-0.783-0.297-1.398-0.583-1.376
													C739.738,304.711,739.536,305.364,739.573,306.145z"/>
											</g>
											<path style="fill:#E5804E;" d="M739.161,324.798c-2.51,7.528-6.179,9.887-10.596,9.759
												c-1.722-0.05-4.327-1.539-6.546-3.391c-1.946-1.628-3.592-3.536-4.049-4.974c0,0,1.516,0.251,4.02,0.379
												C725.934,326.778,732.341,326.672,739.161,324.798z"/>
											<path style="fill:#FFFFFF;" d="M739.161,324.798c-2.51,7.528-6.179,9.887-10.596,9.759
												c-1.722-0.05-4.327-1.539-6.546-3.391c0.234-1.5,0.173-3.067-0.029-4.595
												C725.934,326.778,732.341,326.672,739.161,324.798z"/>
										</g>
									</g>
									<path style="fill:#1E1416;" d="M700.972,284.69c0.475-5.146,1.615-11.579,5.036-15.314c3.779-4.13,8.201-6.556,13.366-7.16
										c2.617-0.306,6.122-0.284,8.223,1.832l3.039,2.663c-0.069,2.284,0.528,4.416,0.535,6.71
										c0.011,2.768-1.186,4.769-2.679,6.817c-3.158,4.326-7.841,4.449-11.938,7.011c-5.936,3.712-13.028,25.56-13.426,28.696
										C701.697,311.865,700.478,290.052,700.972,284.69z"/>
									<g>
										<path style="fill:#301F23;" d="M754.324,316.495c-3.134-7.919-12.663-23.636-18.702-26.813
											c-3.773-1.976-7.099-4.572-9.657-7.826c-2.341-5.636-3.851-12.465-3.23-18.315c0.937-0.661,2.18-1.387,3.752-2.003
											c4.653-1.827,12.182-2.682,23.077,2.027c5.524,2.385,12.025,9.983,13.34,16.362c0.209,1.015,0.393,2.014,0.549,2.989
											C767.561,308.096,755.405,319.228,754.324,316.495z"/>
										<path style="fill:#1E1416;" d="M754.324,316.495c-3.134-7.919-12.663-23.636-18.702-26.813
											c-3.773-1.976-7.099-4.572-9.657-7.826c-2.341-5.636-3.851-12.465-3.23-18.315c0.937-0.661,2.18-1.387,3.752-2.003
											c-0.086,2-0.14,4.035-0.168,6.16c3.762,0.228,8.073-0.096,11.46,1.475c-2.672,0.334-7.341,1.925-8.676,4.975
											c4.812,0.896,9.081,1.081,13.242,4.679c3.567,3.087,6.783,8.334,11.261,9.807c5.362,1.761,8.327-1.057,9.847-5.718
											C767.561,308.096,755.405,319.228,754.324,316.495z"/>
									</g>
									<g>
										<path style="fill:#FFB278;" d="M751.067,316.866l1.44-3.663c2.541-4.548,8.32-4.742,9.483-2.5
											c1.273,2.452-0.298,6.431-1.358,8.736c-1.149,2.498-4.481,5.675-8.057,4.533
											C749.468,322.981,749.853,318.381,751.067,316.866z"/>
										<path style="fill:#E5804E;" d="M756.816,316.26c-0.307-1.74-1.617-1.789-0.65-3.712c1.504-2.991,5.782-1.839,4.859,1.455
											c-0.725-1.719-2.97-1.968-3.914-0.416c3.32,2.191,1.355,5.431-1.599,5.927l0.079-0.458
											C756.142,318.146,757.082,317.782,756.816,316.26z"/>
									</g>
								</g>
								<path style="fill:#0079B5;" d="M797.713,444.969c-0.012,0.072-28.44-0.497-28.44-0.497c-0.235-4.561-0.39-9.15-0.53-13.745
									c-0.201-6.692-0.971-13.339-1.734-19.952c-0.887-7.595-1.774-15.151-1.835-22.696c-0.228-29.114,9.329-39.386,9.329-39.386
									c0.608-0.011,1.244,0.073,1.89,0.223c0.831,0.201,1.69,0.519,2.554,0.936c5.515,2.661,10.958,8.125,13.747,14.817
									c3.356,8.063,5.43,24.38,6.161,41.092C799.492,420.243,799.123,435.015,797.713,444.969z"/>
							</g>
							<path style="fill:#FFB278;" d="M696.224,397.012c-1.673,18.96-2.081,44.695-2.231,47.399l-24.927,0.061l9.312-56.382
								c1.26,2.883,4.423,5.482,7.913,7.171c1.589,0.775,3.251,1.361,4.829,1.695C693.022,397.368,694.806,397.419,696.224,397.012z
								"/>
							<path style="fill:#FFB278;" d="M797.713,444.969c-0.012,0.072-28.44-0.497-28.44-0.497c-0.235-4.561-0.39-9.15-0.53-13.745
								c-0.201-6.692-0.971-13.339-1.734-19.952l0.033-0.937c4.277,4.472,25.243-0.301,31.813-4.076
								C799.492,420.243,799.123,435.015,797.713,444.969z"/>
							<path style="fill:#E5804E;" d="M691.12,396.956c-0.596,4.305-2.107,9.385-2.799,13.071
								c-1.07,5.727-1.516,13.294-3.826,18.452c0.106-6.529,0.418-12.943,0.743-19.478c0.205-4.193,0.947-9.24,1.053-13.74
								C687.881,396.036,689.543,396.621,691.12,396.956z"/>
							<g>
								<g>
									<path style="fill:#FFB278;" d="M690.866,346.482c-0.055,0.167-0.092,0.339-0.148,0.499
										c-1.657,4.983-5.557,6.025-10.016,4.393c-2.355,3.094-6.972,4.892-10.442,0.186c-0.01-0.007-0.01-0.016-0.019-0.021
										c-0.927-0.611-8.615-21.023-9.887-24.506c-1.089-2.986-4.093-8.943-1.957-10.29c1.641-0.253,3.417,4.899,4.602,7.271
										c1.563,3.114,3.95,7.123,3.669,1.56c-0.226-4.412-6.508-17.691-2.137-20.215c2.534-0.438,3.943,7.865,4.467,10.239
										c0.639,2.931,1.464,6.235,3.073,9.52c0.179,0.377,0.37,0.741,0.572,1.116c-0.072-0.42-0.141-0.848-0.217-1.275
										c-1.835-10.284-6.968-23.129-2.663-24.293c3.075-0.462,5.736,16.099,7.643,22.027c0.253,0.796,0.495,1.398,0.726,1.745
										c0.117-0.714,0.162-1.414,0.146-2.111c-0.013-1.409-0.248-2.808-0.552-4.217c-0.762-3.633-1.484-7.585-1.872-11.249
										c-0.172-1.634-0.431-4.747,1.828-3.801c1.45,0.595,2.049,3.446,2.402,4.722c1.162,4.286,2.102,8.694,3.076,13.103
										c0.792,3.619,1.616,7.231,2.609,10.766c0.044,0.158,0.092,0.305,0.13,0.461c0.607-0.748,0.905-1.739,1.003-2.861
										c0.143-1.474-0.044-3.161-0.289-4.81c-0.494-3.297-1.219-6.42,0-7.233c2.419-1.038,3.582,5.541,4.196,7.531
										C691.736,327.736,692.207,343.531,690.866,346.482z"/>
									<path style="fill:#E5804E;" d="M683.161,320.887c0.792,3.619,1.616,7.231,2.609,10.766
										c-2.398,4.047-6.463,7.194-6.078,12.661c-0.435-4.096-0.165-6.661,2.162-10.088c1.728-2.55,2.139-5.3-0.622-7.643
										c-4.087-3.475-15.022,2.821-18.077,6.307c1.747-3.985,5.213-6.157,8.916-7.771c0.072-0.033,0.133-0.053,0.201-0.087
										c0.056-0.024,0.103-0.042,0.154-0.073c1.596-0.69,3.261-1.528,4.98-2.266c0.285-0.128,0.577-0.252,0.872-0.366
										C679.877,321.67,681.519,321.123,683.161,320.887z"/>
								</g>
								<path style="fill:#FFB278;" d="M686.168,385.486c-0.562,14.409,2.103,28.618,2.27,43.312
									c0.044,4.082-1.645,10.6-4.829,15.675h-19.311c-2.761-5.431-4.121-12.479-4.149-16.155
									c-0.078-11.208,3.686-24.19,5.688-35.56c1.656-9.39,8.744-29.237,5.967-39.569c-0.24-0.904-0.558-1.729-0.959-2.47
									l18.418-4.868c-0.211,1.5-0.412,3.034-0.602,4.595C687.318,361.597,686.609,374.216,686.168,385.486z"/>
							</g>
						</g>
					</g>
				</g>
			</g>
			<g>
				<g>
					<g>
						<g>
							<polygon style="fill:#AFAFAF;" points="807.643,608.612 808.983,622.406 826.74,804.835 852.885,804.835 839.718,622.406 
								838.722,608.612 							"/>
						</g>
						<polygon style="fill:#64626B;" points="820.585,608.612 821.772,622.406 837.484,804.835 852.885,804.835 839.718,622.406 
							838.722,608.612 						"/>
					</g>
					<g>
						<g>
							<polygon style="fill:#AFAFAF;" points="922.697,608.612 924.037,622.406 941.794,804.835 967.939,804.835 954.773,622.406 
								953.777,608.612 							"/>
						</g>
						<polygon style="fill:#64626B;" points="935.638,608.612 936.826,622.406 952.538,804.835 967.939,804.835 954.773,622.406 
							953.777,608.612 						"/>
					</g>
					<g>
						<g>
							<polygon style="fill:#AFAEA7;" points="285.298,804.835 311.564,804.835 339.454,622.406 341.056,611.92 309.94,611.92 
															"/>
						</g>
						<polygon style="fill:#407C7C;" points="285.298,804.835 300.763,804.835 326.617,622.406 328.102,611.92 309.94,611.92 						
							"/>
					</g>
					<g>
						<g>
							<polygon style="fill:#AFAFAF;" points="418.627,804.835 444.777,804.835 464.099,622.406 465.558,608.612 434.478,608.612 
								433.363,622.406 							"/>
						</g>
						<polygon style="fill:#625A77;" points="418.627,804.835 434.028,804.835 451.314,622.406 452.62,608.612 434.478,608.612 
							433.363,622.406 						"/>
					</g>
				</g>
				<g>
					<rect x="310.36" y="596.763" style="fill:#64626B;" width="652.685" height="25.644"/>
					<g>
						<path style="fill:#AFAFAF;" d="M300.369,594.36v5.608c0,2.214,2.269,4.008,5.068,4.008h604.811
							c2.798,0,5.066-1.794,5.066-4.008v-5.608c0-2.214-2.269-4.008-5.066-4.008H305.437
							C302.638,590.352,300.369,592.146,300.369,594.36z"/>
						<path style="fill:#64626B;" d="M806.78,590.352h161.569c0.77,0,1.512,0.075,2.204,0.21v13.205
							c-0.693,0.135-1.434,0.209-2.204,0.209H806.78c-3.815,0-6.906-1.794-6.906-4.008v-5.608
							C799.873,592.146,802.965,590.352,806.78,590.352z"/>
					</g>
				</g>
			</g>
		</g>
		<g>
			<g>
				<path style="fill:#FFFFFF;" d="M502.236,294.561l-13.532-7.031c-3.313,6.798,1.071,14.298,7.198,17.687
					C498.221,302.23,502.252,298.317,502.236,294.561z"/>
				<g>
					<path style="fill:#FFB278;" d="M505.513,250.689l-7.586,27.646l-1.007,3.67c4.361,0.686,9.133,1.48,13.229,0.719
						c2.696-0.501,4.387-1.163,5.18-2.305c0.835-1.204,0.669-2.941-0.377-5.592C512.556,268.76,503.86,256.635,505.513,250.689z"/>
					<path style="fill:#E5804E;" d="M497.397,276l-0.476,6.005c4.361,0.686,9.133,1.48,13.229,0.719
						c2.696-0.501,4.387-1.163,5.18-2.305C509.13,281.901,501.78,279.182,497.397,276z"/>
					<path style="fill:#FFB278;" d="M383.004,231.321c0.241,10.28,1.232,21.312,3.628,31.8c1.239,5.418,2.851,10.694,4.93,15.645
						c5.57,13.277,16.085,21.27,27.912,28.198c4.346,2.545,8.287,5.091,12.135,7.594c2.921,1.9,5.781,3.777,8.72,5.604
						c3.447,2.148,6.998,4.232,10.862,6.217c0.092,0.045,0.181,0.093,0.272,0.139c4.892,2.495,14.504,7.404,22.893,8.03
						c2.867,0.213,5.588-0.073,7.931-1.125c2.203-0.989,4.07-2.649,5.404-5.207c2.592-4.961,4.795-13.857,5.082-14.865
						c0.8-2.81,2.208-3.174,4.229-5.713c0.999-1.26,3.973-3.914,2.48-4.391c-7.199-2.305-9.324-7.473-9.017-9.305
						c0.002-0.021,13.698,5.31,13.653,1.78c-0.047-3.705,1.947-16.347,2.546-19.645c3.355-18.435-3.114-17.531-1.74-24.249
						c0.658-3.205,3.837-6.499,6.463-9.684c4.394-5.32,1.588-11.046,0.876-17.229c-0.581-5.083-6.622-39.457-8.043-38.983
						l-4.921-6.752c-6.85-7.091-11.798-10.56-20.832-13.82c-13.224-4.774-23.947-8.672-38.561-7.11
						c-19.733,2.109-38.439,8.895-47.808,27.575C384.571,200.827,382.614,214.845,383.004,231.321z"/>
					<g>
						<path style="fill:#E5804E;" d="M495.872,249.603c1.124-1.612,2.644-3.452,3.564-4.275c2.086-1.876,5.14-3.558,7.756-3.552
							c0.72,0.002,1.361,0.268,1.926,0.722c-0.228,0.936-0.432,1.855-0.623,2.723c-0.747,3.383-1.3,6.791-1.575,10.229
							c-3.749-0.234-7.853-1.307-10.943-2.538c-0.693-0.27-1.594,2.518-2.167,2.236C493.81,255.148,493.592,252.868,495.872,249.603
							z"/>
						<g>
							<path style="fill:#FFFFFF;" d="M495.477,253.498c1.113-1.232,2.525-2.7,3.414-3.337c0.885-0.638,1.956-1.232,3.095-1.698
								c1.467-0.594,3.052-0.975,4.518-0.926c0.519,0.016,1.002,0.144,1.448,0.357c-0.664,3.522-1.096,7.073-1.202,10.656
								c-1.918-0.149-3.939-0.477-5.875-0.913c-1.867-0.42-3.656-0.938-5.195-1.473c-0.695-0.238-1.335-0.486-1.915-0.729
								C493.764,255.436,494.514,254.557,495.477,253.498z"/>
							<path style="fill:#260F0E;" d="M501.988,248.465c-1.077,3.826-1.206,6.958-1.114,9.175c1.934,0.434,3.956,0.762,5.88,0.913
								c0.008-0.271,0.018-0.544,0.031-0.815c0.061-1.536,0.185-3.065,0.364-4.59c0.202-1.759,0.473-3.509,0.802-5.255
								c-0.449-0.211-0.931-0.339-1.449-0.359C505.04,247.488,503.454,247.869,501.988,248.465z"/>
							<path style="fill:#FFFFFF;" d="M505.938,255.292c-0.202,1.279,0.081,2.378,0.623,2.464c0.075,0.011,0.146,0.006,0.223-0.019
								c0.061-1.536,0.185-3.065,0.364-4.59C506.646,253.22,506.124,254.126,505.938,255.292z"/>
						</g>
					</g>
					<path style="fill:#E5804E;" d="M447.247,273.781c-2.706,10.098-4.559,36.292-6.918,46.381
						c3.447,2.148,6.997,4.231,10.862,6.214c0.089,0.047,0.181,0.096,0.273,0.142c4.891,2.496,14.502,7.404,22.895,8.029
						C460.1,325.54,446.189,295.775,447.247,273.781z"/>
					<g>
						<path style="fill:#2D2020;" d="M516.412,236.376c-1.035,3.057-1.86,6.19-2.531,9.354c-2.107,0.084-4.698-0.622-6.583-0.804
							c-6.608-0.64-13.672-1.324-20.136-0.142c-0.122-2.66-0.296-5.314-0.58-7.957C494.524,231.094,511.607,229.296,516.412,236.376
							z"/>
					</g>
					<path style="fill:#FFB278;" d="M363.694,349.943c5.139,0.783,66.459,18.604,79.85,18.44
						c7.765-29.458,4.518-99.121,5.808-102.682c-7.214-8.422-24.214-3.281-26.664-5.712l-36.432,7.948l-4.542,0.992
						c-0.892,1.934-0.282,5.402-0.287,7.744c-0.004,3.693-0.128,7.453-0.4,11.167c-0.414,5.681-1.526,11.366-2.623,16.904
						C376.401,314.873,368.063,340.774,363.694,349.943z"/>
					<g>
						<path style="fill:#260F0E;" d="M529.962,179.491c-0.031,0.005-0.062,0.008-0.092,0.012c0.017-0.023,0.033-0.046,0.05-0.067
							C530.198,179.277,530.213,179.295,529.962,179.491z"/>
						<path style="fill:#493333;" d="M521.894,190.628c-9.445,10.833-23.696,15.18-31.925,15.333
							c-0.702,0.012-1.399,0.019-2.084,0.019c-0.092,0.006-0.178,0.006-0.27,0.006h-0.055c-3.705-0.006-7.189-0.165-10.215-0.373
							c-0.202-0.006-0.41-0.025-0.611-0.037c-8.345-0.611-18.83-2.238-21.318,7.776c-2.353,9.464-1.497,20.009-4.573,29.339
							c-2.273,6.896-3.563,4.866-9.921,5.08c-0.636-4.041-13.628,57.485-13.663,57.491c-25.806,3.711-45.711-3.326-48.279-4.023
							c-0.129-8.883-4.316-30.537-6.437-39.426c-2.422-10.16-5.986-22.51-8.045-32.988c-0.899-4.573-1.926-9.39-2.702-14.33
							c-1.383-8.779-1.994-17.931,0.287-26.704c3.638-13.994,16.256-27.921,27.358-36.21c21.581-16.103,57.412-12.16,81.976-5.031
							c17.607,5.105,43.547,12.276,59.637,11.469C532.696,172.508,528.448,183.127,521.894,190.628z"/>
					</g>
					<path style="fill:#160808;" d="M490.134,205.571c-0.627,0.266-1.383,0.396-2.249,0.409c0.685,0.001,1.382-0.005,2.082-0.021
						L490.134,205.571z"/>
					<g>
						<path style="fill:#2D2020;" d="M521.894,190.628c-9.445,10.833-23.696,15.18-31.925,15.333
							c-0.702,0.012-1.399,0.019-2.084,0.019c-0.092,0.006-0.178,0.006-0.27,0.006h-0.055c-3.705-0.006-7.189-0.165-10.215-0.373
							c-0.202-0.006-0.41-0.025-0.611-0.037c-8.345-0.611-18.83-2.238-21.318,7.776c-2.353,9.464-1.497,20.009-4.573,29.339
							c-2.273,6.896-3.563,4.866-9.921,5.08c-0.636-4.041-13.628,57.485-13.663,57.491c-25.806,3.711-45.711-3.326-48.279-4.023
							c-0.129-8.883-4.316-30.537-6.437-39.426c-2.422-10.16-5.986-22.51-8.045-32.988c-0.899-4.573-1.926-9.39-2.702-14.33
							c13.003,12.796,27.143,16.415,45.007,13.04c12.423-2.342,16.555-6.193,19.532-18.188c2.605-10.509,6.474-16.629,16.984-21.868
							c16.702-8.333,34.48-3.68,51.353,0.605C502.348,190.035,512.253,191.337,521.894,190.628z"/>
					</g>
					<g>
						<path style="fill:#E5804E;" d="M454.141,267.125c0.45-5.042,0.143-11.692,0.143-11.692
							c-0.406-11.396-9.976-21.656-15.998-16.411c-6.047,5.263-7.516,16.414-6.555,23.507c0.952,7.007,5.604,19.847,13.613,18.998
							C452.187,280.801,453.655,272.525,454.141,267.125z"/>
						<path style="fill:#FFB278;" d="M455.021,264.032c0.451-5.044,0.145-11.694,0.145-11.694
							c-0.407-11.396-9.977-21.656-15.999-16.411c-6.046,5.263-7.516,16.415-6.553,23.508c0.952,7.006,5.601,19.847,13.612,18.999
							C453.068,277.708,454.535,269.432,455.021,264.032z"/>
						<path style="fill:#E5804E;" d="M451.612,252.844c0.053-1.234-1.716-5.642-2.137-6.795c-3.219-8.805-10.961-7.361-12.574,1.494
							c3.729-7.347,7.56-0.479,9.819,4.131c-2.414-0.376-4.228,4.928-4.008,7.175c0.389,3.961,2.995,5.195,5.745,6.213l0.011-0.316
							c-0.094-2.91-2.48-7.034-0.104-10.376C449.666,252.539,451.518,255.136,451.612,252.844z"/>
					</g>
				</g>
			</g>
			<path style="fill:#31627A;" d="M310.146,701.43c0.663-3.67,1.747-7.487,1.549-9.356l108.402-17.153
				c156.369-2.837,252.293,59.852,261.543,87.893c5.01,11.632,3.653,24.418,2.806,35.224c-0.207,2.634-0.423,5.193-0.646,7.687
				H555.56c-50.797-4.72-104.014-19.527-154.047-20.086c-25.728-0.288-55.925-2.067-76.3-19.881
				C304.014,747.221,305.734,725.857,310.146,701.43z"/>
			<path style="fill:#E02242;" d="M479.223,516.459c5.536-42.013,13.926-88.591,21.033-126.174
				c6.727-35.57-90.732-71.543-101.503-75.288c0,0-113.359-28.812-92.974,91.349c10.795,63.641,11.779,180.113,7.509,244.613
				c-0.076,1.154-0.344,2.219-0.777,3.207c2.341,19.724,4.13,39.524,5.003,59.363c0.863,10.404,1.855,20.795,3.174,31.148
				c9.13,1.171,18.446,1.685,27.818,1.537c46.525-0.731,94.407-17.59,127.343-49.454c3.648-3.524,7.113-7.231,10.369-11.126
				c-10.605-18.33-14.794-36.713-15.631-57.805c-0.885-21.973,1.866-46.89,4.78-77.734
				C476.374,539.429,477.689,528.121,479.223,516.459z"/>
			<path style="fill:#E02242;" d="M459.379,328.094c-1.784-10.128-76.155-27.391-96.738-29.034
				c-1.189,6.102,0.172,22.112-6.437,23.603l98.407,41.626C453.887,352.826,461.451,339.862,459.379,328.094z"/>
			<g>
				<path style="fill:#FFB278;" d="M623.592,374.253c-0.272,1.092-0.544,2.181-0.801,3.275
					c-8.105,33.145-14.769,66.369-24.872,99.177c-4.481,14.579-26.446,81.52-42.552,79.892L538.78,510.66l-5.635-15.605
					c6.481-23.556,14.779-39.459,26.421-60.637c10.345-18.862,24.989-42.684,37.994-65.864c1.34-2.364,2.646-4.723,3.939-7.075
					c5.198,1.791,10.373,4.625,15.198,7.831C619.093,370.899,621.405,372.564,623.592,374.253z"/>
				<path style="fill:#FFB278;" d="M647.67,318.834c-7.574,19.883-7.423,46.523-23.318,57.71c-0.529,0.371-1.051,0.705-1.561,0.983
					c-2.437,1.354-4.671,1.709-6.832,1.423c-5.833-0.738-11.036-6.122-17.752-9.069c0,0-0.248-0.481-0.647-1.327
					c-1.914-3.96-7.348-15.993-8.134-25.835c-0.192-2.499-5.386-19.3-5.045-26.514c0.173-3.648,5.152-3.372,8.016,1.585
					c3.318,5.74,2.979,6.166,6.172,11.482c1.198-15.693,5.414-56.207,13.704-54.518c6.776,0.057-0.374,36.836-1.087,43.257
					c1.993-7.019,10.022-53.474,17.786-51.965c6.613,1.284-3.311,39.424-2.928,48.827c4.445-12.666,12.715-41.885,16.837-41.689
					c9.748,3.076-3.574,36.899-8.344,46.695c6.447-6.135,9.417-21.454,15.471-25.374c4.019-2.606,4.837-0.243,4.24,3.91
					C653.273,305.069,648.629,316.297,647.67,318.834z"/>
				<path style="fill:#E5804E;" d="M647.67,318.834c-7.574,19.883-7.423,46.523-23.318,57.71c-0.529,0.371-1.051,0.705-1.561,0.983
					c-8.105,33.145-14.769,66.369-24.872,99.177c-4.481,14.579-26.446,81.52-42.552,79.892L538.78,510.66
					c0.18-12.568,15.76-8.6,23.723-18.541c12.145-15.154,20.515-22.767,29.638-39.909c5.396-10.12,18.381-43.772,21.326-54.74
					c1.465-5.43,2.355-12.125,2.492-18.519c0.061-3.103-0.057-6.148-0.381-8.948c0.377-0.221,0.747-0.457,1.119-0.691
					c13.195-8.49,19.298-24.234,22.959-38.719c2.135-8.398,6.743-14.774,9.989-22.432c1.108-2.639,2.995-6.124,4.604-9.746
					C653.273,305.069,648.629,316.297,647.67,318.834z"/>
			</g>
			<path style="fill:#B51638;" d="M486.218,685.633c0.597,1.031-8.836,9.299-9.649,9.951
				c-13.171-11.241-45.265-186.244-22.734-249.543c8.137,13.15,0.535,26.792,8.186,40.229c3.146,5.524,18.048,23.763,17.202,30.189
				c-1.534,11.662-2.849,22.97-3.857,33.633c-2.913,30.845-5.664,55.762-4.78,77.734
				C471.424,648.92,475.613,667.303,486.218,685.633z"/>
			<path style="fill:#E02242;" d="M567.876,546.338c-7.005,10.656-25.101,23.41-40.015,16.646
				c-14.449-6.554-34.784-26.76-43.987-37.55c-26.456-31.01-30.922-49.43-50.424-83.683c-3.939-6.918-4.291-39.696,1.072-49.352
				l20.013-43.842c52.503,3.648,57.392,58.976,76.845,88.887c17.529,26.954,37.765,59.718,40.984,91.038
				C573.022,534.879,571.285,541.149,567.876,546.338z"/>
		</g>
		<g>
			<g>
				<g>
					<g>
						<rect x="495.499" y="667.614" style="fill:#2F3135;" width="27.494" height="96.524"/>
						<rect x="487.465" y="667.614" style="fill:#474B51;" width="27.492" height="96.524"/>
					</g>
					<g>
						<path style="fill:#8C8484;" d="M400.22,670.281c0,9.986,5.445,18.085,12.164,18.085h125.321
							c6.719,0,12.168-8.099,12.168-18.085v-1.807c0-9.992-5.45-18.089-12.168-18.089H412.383c-6.719,0-12.164,8.097-12.164,18.089
							V670.281z"/>
						<path style="fill:#B2A4A4;" d="M481.455,670.281c0,9.986,3.783,18.085,8.453,18.085h87.057c4.678,0,8.457-8.099,8.457-18.085
							v-1.807c0-9.992-3.779-18.089-8.457-18.089h-87.057c-4.67,0-8.453,8.097-8.453,18.089V670.281z"/>
					</g>
				</g>
				<g>
					<g>
						<rect x="199.871" y="655.753" style="fill:#151D2B;" width="27.49" height="127.202"/>
						<rect x="191.836" y="655.753" style="fill:#222E44;" width="27.492" height="127.202"/>
					</g>
					<g>
						<path style="fill:#8C8484;" d="M131.235,658.42c0,9.985,4.475,18.083,9.998,18.083h103.009c5.524,0,10-8.098,10-18.083v-1.808
							c0-9.99-4.476-18.09-10-18.09H141.233c-5.523,0-9.998,8.099-9.998,18.09V658.42z"/>
						<path style="fill:#3F2516;" d="M204.82,658.42c0,9.985,3.094,18.083,6.907,18.083h71.158c3.82,0,6.909-8.098,6.909-18.083
							v-1.808c0-9.99-3.089-18.09-6.909-18.09h-71.158c-3.814,0-6.907,8.099-6.907,18.09V658.42z"/>
					</g>
				</g>
				<g>
					<path style="fill:#B2A4A4;" d="M431.4,804.835c-1.2-4.019-1.9-8.841-1.9-14.025v-2.535c0-14.017,5.107-25.377,11.4-25.377
						h117.396c6.297,0,11.399,11.36,11.399,25.377v2.535c0,5.184-0.7,10.006-1.898,14.025H431.4z"/>
					<path style="fill:#8C8484;" d="M149.968,804.835c-2.932-4.019-4.644-8.841-4.644-14.025v-2.535
						c0-14.017,12.479-25.377,27.875-25.377H460.35c15.402,0,27.881,11.36,27.881,25.377v2.535c0,5.184-1.711,10.006-4.644,14.025
						H149.968z"/>
				</g>
				<g>
					<g>
						<path style="fill:#B2A4A4;" d="M169.658,804.835c3.84-82.195-52.794-410.298-36.754-434.658
							c6.613-10.035,57.74-29.853,91.829-31.606c23.43-1.197,111.748-13.914,154.437,51.645
							c37.838,58.107,47.417,352.877,57.962,414.619H169.658z"/>
					</g>
					<g>
						<path style="fill:#8C8484;" d="M168.18,804.835c-4.176-124.022-55.651-411.437-34.631-434.229
							c36.75-39.85,133.182-31.465,154.145-29.178c83.854,9.149,87.885,218.89,92.277,332.912
							c1.231,32.302,2.657,88.192,3.647,130.495H168.18z"/>
					</g>
				</g>
			</g>
		</g>
	</g>
</g>
</svg>
