<svg version="1.1" xmlns="http://www.w3.org/2000/svg" xmlns:xlink="http://www.w3.org/1999/xlink" width="50px" height="50px" viewBox="0,0,256,256"><g fill="#fe7638" fill-rule="nonzero" stroke="none" stroke-width="1" stroke-linecap="butt" stroke-linejoin="miter" stroke-miterlimit="10" stroke-dasharray="" stroke-dashoffset="0" font-family="none" font-weight="none" font-size="none" text-anchor="none" style="mix-blend-mode: normal"><g transform="scale(5.12,5.12)"><path d="M21.4375,1.00586c-1.3558,0.04049 -2.66576,0.74662 -3.41211,1.98047l-0.26367,0.4375c-0.37655,0.62168 -1.04003,1.00457 -1.76562,1.01953h-0.00195l-0.51172,0.01172c-2.19585,0.04573 -3.98461,1.83321 -4.0293,4.0293l-0.01172,0.51172c-0.01496,0.7256 -0.39902,1.39047 -1.01953,1.76563l-0.4375,0.26563c-1.87893,1.13738 -2.53498,3.58099 -1.47656,5.50586h0.00195l0.24609,0.44922c0.35015,0.63571 0.35015,1.40336 0,2.03906l-0.24609,0.44727c-1.05825,1.92457 -0.40359,4.36857 1.47656,5.50586l0.4375,0.26367c0.62168,0.37655 1.00457,1.04003 1.01953,1.76563v0.00195l0.01172,0.51172c0.03699,1.77624 1.22129,3.26885 2.83203,3.80469l-5.19531,11.25781c-0.14327,0.30976 -0.11868,0.67119 0.06521,0.9587c0.18389,0.28751 0.5017,0.46139 0.84299,0.46122h6.51953l3.69922,4.625c0.21885,0.27343 0.56479,0.41245 0.912,0.3665c0.3472,-0.04595 0.64507,-0.27017 0.78527,-0.59111l3.11523,-7.11914l3.11523,7.11914c0.1402,0.32094 0.43807,0.54517 0.78527,0.59111c0.3472,0.04595 0.69314,-0.09308 0.912,-0.3665l3.69922,-4.625h6.51953c0.34129,0.00017 0.6591,-0.17372 0.84299,-0.46122c0.18389,-0.28751 0.20848,-0.64894 0.06521,-0.9587l-5.20312,-11.27539c1.58364,-0.55097 2.74271,-2.0303 2.7793,-3.78711v-0.00195l0.01172,-0.50977v-0.00195c0.01496,-0.7256 0.39902,-1.39046 1.01953,-1.76562l0.43945,-0.26562c1.87897,-1.13738 2.53303,-3.57903 1.47461,-5.50391l-0.00195,-0.00195l-0.25,-0.45117c-0.34802,-0.63495 -0.34753,-1.40074 0.00195,-2.03516l0.24805,-0.44727v-0.00195c1.05779,-1.92373 0.40366,-4.36597 -1.47461,-5.50391l-0.00195,-0.00195l-0.4375,-0.26367c-0.62163,-0.37636 -1.00457,-1.04003 -1.01953,-1.76563v-0.00195l-0.01172,-0.50977v-0.00195c-0.04573,-2.19585 -1.83321,-3.98461 -4.0293,-4.0293l-0.51172,-0.01172c-0.7256,-0.01496 -1.39046,-0.39902 -1.76562,-1.01953l-0.26562,-0.4375c-1.13729,-1.88015 -3.58129,-2.53481 -5.50586,-1.47656v0.00195l-0.44922,0.24609c-0.63571,0.35015 -1.40336,0.35015 -2.03906,0l-0.44727,-0.24609c-0.48114,-0.26456 -0.99422,-0.42232 -1.51172,-0.48047c-0.19406,-0.0218 -0.38835,-0.02922 -0.58203,-0.02344zM21.38672,3c0.39551,-0.02886 0.80535,0.05481 1.18164,0.26172l0.44531,0.24609c1.23429,0.67985 2.73641,0.67985 3.9707,0l0.44727,-0.24805v0.00195c1.00343,-0.55175 2.23737,-0.22204 2.83008,0.75781l0.26563,0.4375c0.72865,1.20422 2.02643,1.9547 3.43359,1.98438l0.51367,0.01172c1.14525,0.0233 2.04896,0.92506 2.07227,2.07031v0.00195l0.00977,0.51172c0.02904,1.40841 0.78005,2.70609 1.98438,3.43555l0.4375,0.26563c0.97925,0.59234 1.3101,1.82502 0.75977,2.82813l-0.24805,0.44922c-0.67985,1.23429 -0.67985,2.73446 0,3.96875l0.00195,0.00195v0.00195l0.24805,0.44336c0.55158,1.00313 0.21926,2.23746 -0.75977,2.83008l-0.4375,0.26563c-1.20549,0.72884 -1.95534,2.02715 -1.98437,3.43555l-0.00977,0.51172v0.00195c-0.0233,1.14525 -0.92702,2.04701 -2.07227,2.07031l-0.51367,0.01172c-1.40766,0.02969 -2.70447,0.77865 -3.43359,1.98242v0.00195l-0.26562,0.4375c-0.59271,0.97985 -1.82664,1.30956 -2.83008,0.75781v0.00195l-0.44727,-0.24805c-1.23429,-0.67985 -2.73641,-0.67985 -3.9707,0l-0.44727,0.24805v-0.00195c-1.00313,0.55158 -2.23746,0.22121 -2.83008,-0.75781l-0.26562,-0.4375c-0.72865,-1.20422 -2.02642,-1.9547 -3.43359,-1.98437h-0.00195l-0.51172,-0.01172c-1.14525,-0.0233 -2.04896,-0.92506 -2.07227,-2.07031v-0.00195l-0.00977,-0.51172c-0.02904,-1.40841 -0.78005,-2.70609 -1.98437,-3.43555l-0.4375,-0.26562c-0.97981,-0.59284 -1.31152,-1.82664 -0.75976,-2.83008l0.24609,-0.44531v-0.00195c0.67891,-1.23397 0.67954,-2.73503 0,-3.96875l-0.24805,-0.44727h0.00195c-0.55158,-1.00313 -0.22121,-2.23746 0.75781,-2.83008l0.4375,-0.26562c1.20422,-0.72865 1.9547,-2.02643 1.98438,-3.43359v-0.00195l0.01172,-0.51172c0.0233,-1.14525 0.92506,-2.04896 2.07031,-2.07227h0.00195l0.51172,-0.00977c1.40841,-0.02904 2.70609,-0.78005 3.43555,-1.98437l0.26563,-0.4375c0.29635,-0.48992 0.75165,-0.81901 1.25977,-0.95508c0.12703,-0.03402 0.25683,-0.05679 0.38867,-0.06641zM32.2832,11.08594l-8.24023,12.88086l-6.62305,-5.96094l-1.33984,1.48828l8.37695,7.53711l9.50977,-14.86719zM33.70117,31.60352l4.79688,10.39648h-5.43555c-0.30386,-0.00018 -0.59132,0.13781 -0.78125,0.375l-2.9668,3.70703l-3.19141,-7.29883l1.68359,-3.84766c1.6072,0.25102 3.28287,-0.45669 4.16797,-1.91992l0.26563,-0.4375c0.32236,-0.53221 0.85905,-0.87343 1.46094,-0.97461zM16.35742,31.61133c0.57908,0.11367 1.09315,0.45216 1.4043,0.9668l0.26563,0.4375c1.13738,1.87897 3.58099,2.53498 5.50586,1.47656v-0.00195l0.44922,-0.24609c0.6102,-0.3361 1.33903,-0.34039 1.95898,-0.03125l-5.19336,11.86914l-2.9668,-3.70703c-0.18993,-0.23719 -0.47739,-0.37518 -0.78125,-0.375h-5.43555z"></path></g></g></svg>