<svg version="1.1" xmlns="http://www.w3.org/2000/svg" xmlns:xlink="http://www.w3.org/1999/xlink" width="50px" height="50px" viewBox="0,0,256,256"><g fill="#fe7638" fill-rule="nonzero" stroke="none" stroke-width="1" stroke-linecap="butt" stroke-linejoin="miter" stroke-miterlimit="10" stroke-dasharray="" stroke-dashoffset="0" font-family="none" font-weight="none" font-size="none" text-anchor="none" style="mix-blend-mode: normal"><g transform="scale(5.12,5.12)"><path d="M25,4c-12.61719,0 -23,8.88281 -23,20c0,6.4375 3.55469,12.10156 8.92578,15.74219c-0.00781,0.22656 0.00781,0.54688 -0.26953,1.56641c-0.34375,1.28516 -1.04297,3.08984 -2.47266,5.11328l-1.10547,1.57031l1.91797,0.00781c6.17188,0.02734 9.73438,-3.97656 10.33203,-4.67187c1.82031,0.40234 3.70703,0.67188 5.67188,0.67188c12.61719,0 23,-8.88281 23,-20c0,-11.11719 -10.38281,-20 -23,-20zM25,6c11.68359,0 21,8.13281 21,18c0,9.86719 -9.31641,18 -21,18c-1.99609,0 -3.92578,-0.23828 -5.75391,-0.68359l-0.61719,-0.14844l-0.39844,0.49219c0,0 -2.81641,3.1875 -7.30859,4.00781c0.79297,-1.44922 1.38672,-2.80469 1.66797,-3.83984c0.40234,-1.48828 0.40625,-2.5 0.40625,-2.5v-0.55078l-0.46484,-0.29297c-5.21094,-3.30469 -8.53125,-8.56641 -8.53125,-14.48437c0,-9.86719 9.31641,-18 21,-18zM18,17c-1.64453,0 -3,1.35547 -3,3v8c0,1.64453 1.35547,3 3,3h10c1.64453,0 3,-1.35547 3,-3v-0.35937l4.35938,2.25c0.14453,0.07031 0.30078,0.10938 0.45703,0.10938h0.18359c0.55078,0 1,-0.44922 1,-1v-10c0,-0.55078 -0.44922,-1 -1,-1h-0.18359c-0.15625,0 -0.3125,0.03906 -0.45703,0.10938l-4.35937,2.25v-0.35937c0,-1.64453 -1.35547,-3 -3,-3zM18,19h10c0.56641,0 1,0.43359 1,1v8c0,0.56641 -0.43359,1 -1,1h-10c-0.56641,0 -1,-0.43359 -1,-1v-8c0,-0.56641 0.43359,-1 1,-1zM35,20.54688v6.90625l-4,-2.0625v-2.78125z"></path></g></g></svg>